<?xml version="1.0" encoding="utf-8"?>
<!-- Generator: Adobe Illustrator 24.0.3, SVG Export Plug-In . SVG Version: 6.00 Build 0)  -->
<svg version="1.1" id="レイヤー_1" xmlns="http://www.w3.org/2000/svg" xmlns:xlink="http://www.w3.org/1999/xlink" x="0px"
	 y="0px" viewBox="0 0 256 288" style="enable-background:new 0 0 256 288;" xml:space="preserve">
<style type="text/css">
	.st0{fill:#A9B9CB;}
	.st1{fill:#7F8B99;}
	.st2{fill:#FFFFFF;}
</style>
<g>
	<path class="st0" d="M256,85.7c0-4.8-1-9.1-3.1-12.8c-2.1-3.6-5.1-6.6-9.3-9c-34.1-19.7-68.2-39.3-102.3-59
		c-9.2-5.3-18.1-5.1-27.2,0.3c-13.6,8-81.5,47-101.7,58.7C4.1,68.7,0,76.1,0,85.7c0,39.6,0,79.1,0,118.7c0,4.7,1,8.9,3,12.6
		c2.1,3.7,5.2,6.8,9.4,9.3c20.2,11.7,88.2,50.7,101.7,58.7c9.1,5.4,18,5.6,27.2,0.3c34.1-19.7,68.2-39.3,102.3-59
		c4.2-2.4,7.3-5.6,9.4-9.3c2-3.6,3-7.8,3-12.6C256,204.3,256,125.2,256,85.7"/>
	<path class="st1" d="M141.1,5.1C131.9-0.2,123,0,113.9,5.4c-13.5,8-81.3,46.8-101.6,58.5C4.1,68.8,0,76.1,0,85.7
		c0,39.5,0,78.9,0,118.4c0,4.7,1,8.9,3,12.5c2.1,3.7,5.2,6.8,9.4,9.3c4.6,2.7,11.8,6.8,20.2,11.6L219.6,50.4
		C193.4,35.3,167.3,20.2,141.1,5.1"/>
	<path class="st2" d="M154.5,127l39.8,0.3c0-16.6-16.8-57.2-65-57.2c-30.7,0-72,19.5-72,75.6c0,56.1,40.4,74.4,72,74.4
		c51,0,63.2-35.3,63.2-55.3l-38-2.2c0,0,1,23.1-25.4,23.1c-24.4,0-28.5-29.9-28.5-40c0-15.4,5.5-40.2,28.5-40.2
		C152.1,105.4,154.5,127,154.5,127"/>
</g>
</svg>
