<?xml version="1.0" encoding="utf-8"?>
<!-- Generator: Adobe Illustrator 24.0.3, SVG Export Plug-In . SVG Version: 6.00 Build 0)  -->
<svg version="1.1" id="レイヤー_1" xmlns="http://www.w3.org/2000/svg" xmlns:xlink="http://www.w3.org/1999/xlink" x="0px"
	 y="0px" viewBox="0 0 256 361" style="enable-background:new 0 0 256 361;" xml:space="preserve">
<style type="text/css">
	.st0{fill:#E44D26;}
	.st1{fill:#F16529;}
	.st2{fill:#EBEBEB;}
	.st3{fill:#FFFFFF;}
</style>
<g>
	<path class="st0" d="M255.6,71.2l-23.2,260.4l-104.5,29L23.7,331.6L0.4,71.2H255.6L255.6,71.2z"/>
	<path class="st1" d="M128,338.4l84.4-23.4l19.9-222.5H128V338.4L128,338.4z"/>
	<path class="st2" d="M82.8,156.4H128v-31.9H47.9l0.8,8.6l7.8,88H128v-31.9H85.7L82.8,156.4L82.8,156.4z"/>
	<path class="st2" d="M90,237H58l4.5,50.1l65.4,18.2l0.1,0V272l-0.1,0l-35.6-9.6L90,237L90,237z"/>
	<path d="M24.2,0.5h16.2v16h14.8v-16h16.2V49H55.3V32.8H40.4V49H24.2L24.2,0.5L24.2,0.5L24.2,0.5z"/>
	<path d="M92.8,16.6H78.5V0.5h44.8v16.1h-14.3V49H92.8L92.8,16.6L92.8,16.6L92.8,16.6z"/>
	<path d="M130.5,0.5h16.9l10.4,17.1l10.4-17.1h16.9V49H169V24.9l-11.2,17.3h-0.3l-11.2-17.3V49h-15.9V0.5L130.5,0.5z"/>
	<path d="M193.2,0.5h16.2V33h22.8V49h-39.1V0.5L193.2,0.5z"/>
	<path class="st3" d="M127.9,221h39.3l-3.7,41.4l-35.6,9.6v33.2l65.5-18.1l0.5-5.4l7.5-84.1l0.8-8.6h-74.2V221L127.9,221z"/>
	<path class="st3" d="M127.9,156.3L127.9,156.3l77.1,0.1l0.6-7.2l1.5-16.2l0.8-8.6h-80V156.3L127.9,156.3z"/>
</g>
</svg>
