<?xml version="1.0" encoding="utf-8"?>
<!-- Generator: Adobe Illustrator 24.0.3, SVG Export Plug-In . SVG Version: 6.00 Build 0)  -->
<svg version="1.1" id="レイヤー_1" xmlns="http://www.w3.org/2000/svg" xmlns:xlink="http://www.w3.org/1999/xlink" x="0px"
	 y="0px" viewBox="0 0 256 255" style="enable-background:new 0 0 256 255;" xml:space="preserve">
<style type="text/css">
	.st0{fill:url(#SVGID_1_);}
	.st1{fill:url(#SVGID_2_);}
</style>
<g>
	
		<linearGradient id="SVGID_1_" gradientUnits="userSpaceOnUse" x1="27.9794" y1="228.0218" x2="28.6462" y2="227.3602" gradientTransform="matrix(189.3834 0 0 -189.8058 -5274.5913 43303.7852)">
		<stop  offset="0" style="stop-color:#387EB8"/>
		<stop  offset="1" style="stop-color:#366994"/>
	</linearGradient>
	<path class="st0" d="M127.1,0.5c-64.8,0-60.8,28.1-60.8,28.1l0.1,29.1h61.9v8.7H41.8c0,0-41.5-4.7-41.5,60.7
		c0,65.4,36.2,63.1,36.2,63.1h21.6v-30.4c0,0-1.2-36.2,35.6-36.2h61.4c0,0,34.5,0.6,34.5-33.3v-56C189.6,34.4,194.8,0.5,127.1,0.5
		L127.1,0.5L127.1,0.5z M93,20.1c6.2,0,11.1,5,11.1,11.1s-5,11.1-11.1,11.1c-6.2,0-11.1-5-11.1-11.1C81.8,25,86.8,20.1,93,20.1
		L93,20.1L93,20.1z"/>
	
		<linearGradient id="SVGID_2_" gradientUnits="userSpaceOnUse" x1="28.0411" y1="227.9362" x2="28.7572" y2="227.2577" gradientTransform="matrix(189.3834 0 0 -189.8058 -5208.5908 43368.043)">
		<stop  offset="0" style="stop-color:#FFE052"/>
		<stop  offset="1" style="stop-color:#FFC331"/>
	</linearGradient>
	<path class="st1" d="M128.9,254.5c64.8,0,60.8-28.1,60.8-28.1l-0.1-29.1h-61.9v-8.7h86.4c0,0,41.5,4.7,41.5-60.7
		c0-65.4-36.2-63.1-36.2-63.1h-21.6v30.4c0,0,1.2,36.2-35.6,36.2h-61.4c0,0-34.5-0.6-34.5,33.3v56
		C66.4,220.6,61.2,254.5,128.9,254.5L128.9,254.5L128.9,254.5z M163,234.9c-6.2,0-11.1-5-11.1-11.1c0-6.2,5-11.1,11.1-11.1
		c6.2,0,11.1,5,11.1,11.1C174.2,230,169.2,234.9,163,234.9L163,234.9L163,234.9z"/>
</g>
</svg>
