<?xml version="1.0" encoding="utf-8"?>
<!-- Generator: Adobe Illustrator 24.0.3, SVG Export Plug-In . SVG Version: 6.00 Build 0)  -->
<svg version="1.1" id="レイヤー_1" xmlns="http://www.w3.org/2000/svg" xmlns:xlink="http://www.w3.org/1999/xlink" x="0px"
	 y="0px" viewBox="0 0 256 346" style="enable-background:new 0 0 256 346;" xml:space="preserve">
<style type="text/css">
	.st0{fill:#5382A1;}
	.st1{fill:#E76F00;}
</style>
<g>
	<path class="st0" d="M81.8,267.1c0,0-13.2,7.7,9.4,10.3c27.4,3.1,41.4,2.7,71.5-3c0,0,7.9,5,19,9.3
		C114.1,312.6,28.7,281.9,81.8,267.1"/>
	<path class="st0" d="M73.5,229.3c0,0-14.8,11,7.8,13.3c29.2,3,52.3,3.3,92.3-4.4c0,0,5.5,5.6,14.2,8.7
		C106.1,270.7,15,248.7,73.5,229.3"/>
	<path class="st1" d="M143.2,165.1c16.7,19.2-4.4,36.4-4.4,36.4s42.3-21.8,22.9-49.2c-18.1-25.5-32.1-38.2,43.3-81.9
		C205,70.5,86.7,100.1,143.2,165.1"/>
	<path class="st0" d="M232.6,295.1c0,0,9.8,8-10.8,14.3c-39,11.8-162.4,15.4-196.7,0.5c-12.3-5.4,10.8-12.8,18.1-14.4
		c7.6-1.6,11.9-1.3,11.9-1.3c-13.7-9.7-88.6,19-38,27.2C154.9,343.6,268.4,311.2,232.6,295.1"/>
	<path class="st0" d="M88.1,190.1c0,0-62.8,14.9-22.2,20.3c17.1,2.3,51.2,1.8,83-0.9c26-2.2,52.1-6.9,52.1-6.9s-9.2,3.9-15.8,8.4
		c-63.7,16.8-186.9,9-151.4-8.2C63.8,188.5,88.1,190.1,88.1,190.1"/>
	<path class="st0" d="M200.8,253.1c64.8-33.7,34.8-66,13.9-61.7c-5.1,1.1-7.4,2-7.4,2s1.9-3,5.5-4.3c41.4-14.5,73.2,42.9-13.4,65.6
		C199.4,254.7,200.5,253.9,200.8,253.1"/>
	<path class="st1" d="M161.7,0c0,0,35.9,35.9-34,91.1c-56.1,44.3-12.8,69.5,0,98.4C94.9,159.9,70.9,134,87,109.8
		C110.6,74.2,176.2,57,161.7,0"/>
	<path class="st0" d="M94.5,344.3c62.2,4,157.7-2.2,160-31.6c0,0-4.3,11.2-51.4,20c-53.1,10-118.6,8.8-157.4,2.4
		C45.7,335.1,53.6,341.7,94.5,344.3"/>
</g>
</svg>
